<mxfile host="app.diagrams.net" agent="Mozilla/5.0 (Windows NT 10.0; Win64; x64) AppleWebKit/537.36 (KHTML, like Gecko) Chrome/128.0.0.0 Safari/537.36" version="24.7.13">
  <diagram name="Page-1" id="sLlXVg1Lx-Ligimtr3OY">
    <mxGraphModel dx="2207" dy="892" grid="1" gridSize="10" guides="1" tooltips="1" connect="1" arrows="1" fold="1" page="1" pageScale="1" pageWidth="850" pageHeight="1100" math="0" shadow="0">
      <root>
        <mxCell id="0" />
        <mxCell id="1" parent="0" />
        <mxCell id="S05p-A15AvvzfdkErifR-1" value="Branch" style="rounded=0;whiteSpace=wrap;html=1;" vertex="1" parent="1">
          <mxGeometry x="160" y="80" width="120" height="60" as="geometry" />
        </mxCell>
        <mxCell id="S05p-A15AvvzfdkErifR-2" value="&lt;u&gt;Name&lt;/u&gt;" style="ellipse;whiteSpace=wrap;html=1;" vertex="1" parent="1">
          <mxGeometry x="-10" y="190" width="120" height="80" as="geometry" />
        </mxCell>
        <mxCell id="S05p-A15AvvzfdkErifR-4" value="Rating" style="ellipse;whiteSpace=wrap;html=1;" vertex="1" parent="1">
          <mxGeometry x="330" y="190" width="120" height="80" as="geometry" />
        </mxCell>
        <mxCell id="S05p-A15AvvzfdkErifR-5" value="" style="endArrow=none;html=1;rounded=0;exitX=0.5;exitY=0;exitDx=0;exitDy=0;entryX=0.5;entryY=1;entryDx=0;entryDy=0;" edge="1" parent="1" source="S05p-A15AvvzfdkErifR-4" target="S05p-A15AvvzfdkErifR-1">
          <mxGeometry width="50" height="50" relative="1" as="geometry">
            <mxPoint x="400" y="370" as="sourcePoint" />
            <mxPoint x="450" y="320" as="targetPoint" />
          </mxGeometry>
        </mxCell>
        <mxCell id="S05p-A15AvvzfdkErifR-6" value="" style="endArrow=none;html=1;rounded=0;exitX=0.5;exitY=0;exitDx=0;exitDy=0;entryX=0.5;entryY=1;entryDx=0;entryDy=0;" edge="1" parent="1" source="S05p-A15AvvzfdkErifR-2" target="S05p-A15AvvzfdkErifR-1">
          <mxGeometry width="50" height="50" relative="1" as="geometry">
            <mxPoint x="400" y="370" as="sourcePoint" />
            <mxPoint x="220" y="200" as="targetPoint" />
          </mxGeometry>
        </mxCell>
        <mxCell id="S05p-A15AvvzfdkErifR-7" value="" style="endArrow=none;html=1;rounded=0;exitX=0.439;exitY=-0.004;exitDx=0;exitDy=0;exitPerimeter=0;entryX=0.5;entryY=1;entryDx=0;entryDy=0;" edge="1" parent="1" source="S05p-A15AvvzfdkErifR-3" target="S05p-A15AvvzfdkErifR-1">
          <mxGeometry width="50" height="50" relative="1" as="geometry">
            <mxPoint x="400" y="370" as="sourcePoint" />
            <mxPoint x="225" y="200" as="targetPoint" />
          </mxGeometry>
        </mxCell>
        <mxCell id="S05p-A15AvvzfdkErifR-39" style="edgeStyle=orthogonalEdgeStyle;rounded=0;orthogonalLoop=1;jettySize=auto;html=1;entryX=0;entryY=0.5;entryDx=0;entryDy=0;strokeWidth=1;" edge="1" parent="1" source="S05p-A15AvvzfdkErifR-8" target="S05p-A15AvvzfdkErifR-34">
          <mxGeometry relative="1" as="geometry" />
        </mxCell>
        <mxCell id="S05p-A15AvvzfdkErifR-46" style="edgeStyle=orthogonalEdgeStyle;rounded=0;orthogonalLoop=1;jettySize=auto;html=1;entryX=0;entryY=0.5;entryDx=0;entryDy=0;" edge="1" parent="1" source="S05p-A15AvvzfdkErifR-8" target="S05p-A15AvvzfdkErifR-44">
          <mxGeometry relative="1" as="geometry" />
        </mxCell>
        <mxCell id="S05p-A15AvvzfdkErifR-8" value="Customer" style="rounded=0;whiteSpace=wrap;html=1;" vertex="1" parent="1">
          <mxGeometry x="-500" y="400" width="110" height="60" as="geometry" />
        </mxCell>
        <mxCell id="S05p-A15AvvzfdkErifR-9" value="&lt;u&gt;Name&lt;/u&gt;" style="ellipse;whiteSpace=wrap;html=1;" vertex="1" parent="1">
          <mxGeometry x="-740" y="490" width="120" height="80" as="geometry" />
        </mxCell>
        <mxCell id="S05p-A15AvvzfdkErifR-10" value="" style="endArrow=none;html=1;rounded=0;entryX=0.5;entryY=1;entryDx=0;entryDy=0;exitX=0.561;exitY=0.029;exitDx=0;exitDy=0;exitPerimeter=0;" edge="1" parent="1" source="S05p-A15AvvzfdkErifR-9" target="S05p-A15AvvzfdkErifR-8">
          <mxGeometry width="50" height="50" relative="1" as="geometry">
            <mxPoint x="-589.3599999999999" y="467.68000000000006" as="sourcePoint" />
            <mxPoint x="-520" y="520" as="targetPoint" />
          </mxGeometry>
        </mxCell>
        <mxCell id="S05p-A15AvvzfdkErifR-11" value="&lt;u&gt;Phone number&lt;/u&gt;" style="ellipse;whiteSpace=wrap;html=1;" vertex="1" parent="1">
          <mxGeometry x="-430" y="500" width="120" height="80" as="geometry" />
        </mxCell>
        <mxCell id="S05p-A15AvvzfdkErifR-12" value="" style="endArrow=none;html=1;rounded=0;entryX=0.5;entryY=1;entryDx=0;entryDy=0;exitX=0.5;exitY=0;exitDx=0;exitDy=0;" edge="1" parent="1" source="S05p-A15AvvzfdkErifR-11" target="S05p-A15AvvzfdkErifR-8">
          <mxGeometry width="50" height="50" relative="1" as="geometry">
            <mxPoint x="-570" y="570" as="sourcePoint" />
            <mxPoint x="-520" y="520" as="targetPoint" />
          </mxGeometry>
        </mxCell>
        <mxCell id="S05p-A15AvvzfdkErifR-13" value="Street address" style="ellipse;whiteSpace=wrap;html=1;" vertex="1" parent="1">
          <mxGeometry x="-580" y="500" width="120" height="80" as="geometry" />
        </mxCell>
        <mxCell id="S05p-A15AvvzfdkErifR-14" value="City" style="ellipse;whiteSpace=wrap;html=1;" vertex="1" parent="1">
          <mxGeometry x="-270" y="500" width="120" height="80" as="geometry" />
        </mxCell>
        <mxCell id="S05p-A15AvvzfdkErifR-15" value="" style="endArrow=none;html=1;rounded=0;exitX=0.5;exitY=0;exitDx=0;exitDy=0;entryX=0.5;entryY=1;entryDx=0;entryDy=0;" edge="1" parent="1" source="S05p-A15AvvzfdkErifR-13" target="S05p-A15AvvzfdkErifR-8">
          <mxGeometry width="50" height="50" relative="1" as="geometry">
            <mxPoint x="-570" y="570" as="sourcePoint" />
            <mxPoint x="-350" y="440" as="targetPoint" />
          </mxGeometry>
        </mxCell>
        <mxCell id="S05p-A15AvvzfdkErifR-16" value="" style="endArrow=none;html=1;rounded=0;exitX=0.5;exitY=0;exitDx=0;exitDy=0;entryX=0.5;entryY=1;entryDx=0;entryDy=0;" edge="1" parent="1" source="S05p-A15AvvzfdkErifR-14" target="S05p-A15AvvzfdkErifR-8">
          <mxGeometry width="50" height="50" relative="1" as="geometry">
            <mxPoint x="-570" y="570" as="sourcePoint" />
            <mxPoint x="-520" y="520" as="targetPoint" />
          </mxGeometry>
        </mxCell>
        <mxCell id="S05p-A15AvvzfdkErifR-18" value="Maintained by" style="rhombus;whiteSpace=wrap;html=1;strokeWidth=1;" vertex="1" parent="1">
          <mxGeometry x="10" y="290" width="130" height="80" as="geometry" />
        </mxCell>
        <mxCell id="S05p-A15AvvzfdkErifR-22" value="" style="endArrow=classic;html=1;rounded=0;entryX=0.5;entryY=1;entryDx=0;entryDy=0;exitX=0.5;exitY=0;exitDx=0;exitDy=0;strokeWidth=3;" edge="1" parent="1" source="S05p-A15AvvzfdkErifR-28" target="S05p-A15AvvzfdkErifR-18">
          <mxGeometry width="50" height="50" relative="1" as="geometry">
            <mxPoint x="90" y="500" as="sourcePoint" />
            <mxPoint x="450" y="370" as="targetPoint" />
          </mxGeometry>
        </mxCell>
        <mxCell id="S05p-A15AvvzfdkErifR-26" style="edgeStyle=orthogonalEdgeStyle;rounded=0;orthogonalLoop=1;jettySize=auto;html=1;entryX=0.5;entryY=1;entryDx=0;entryDy=0;strokeWidth=3;exitX=0.5;exitY=0;exitDx=0;exitDy=0;" edge="1" parent="1" source="S05p-A15AvvzfdkErifR-29" target="S05p-A15AvvzfdkErifR-25">
          <mxGeometry relative="1" as="geometry">
            <mxPoint x="290" y="500" as="sourcePoint" />
          </mxGeometry>
        </mxCell>
        <mxCell id="S05p-A15AvvzfdkErifR-25" value="Maintained by" style="rhombus;whiteSpace=wrap;html=1;strokeWidth=1;" vertex="1" parent="1">
          <mxGeometry x="210" y="290" width="130" height="80" as="geometry" />
        </mxCell>
        <mxCell id="S05p-A15AvvzfdkErifR-27" value="" style="endArrow=none;html=1;rounded=0;entryX=0.5;entryY=1;entryDx=0;entryDy=0;exitX=0.5;exitY=0;exitDx=0;exitDy=0;" edge="1" parent="1" source="S05p-A15AvvzfdkErifR-25" target="S05p-A15AvvzfdkErifR-1">
          <mxGeometry width="50" height="50" relative="1" as="geometry">
            <mxPoint x="400" y="470" as="sourcePoint" />
            <mxPoint x="450" y="420" as="targetPoint" />
          </mxGeometry>
        </mxCell>
        <mxCell id="S05p-A15AvvzfdkErifR-45" style="edgeStyle=orthogonalEdgeStyle;rounded=0;orthogonalLoop=1;jettySize=auto;html=1;entryX=1;entryY=0.5;entryDx=0;entryDy=0;strokeWidth=3;" edge="1" parent="1" source="S05p-A15AvvzfdkErifR-28" target="S05p-A15AvvzfdkErifR-44">
          <mxGeometry relative="1" as="geometry" />
        </mxCell>
        <mxCell id="S05p-A15AvvzfdkErifR-28" value="Loan" style="rounded=0;whiteSpace=wrap;html=1;strokeWidth=1;" vertex="1" parent="1">
          <mxGeometry x="20" y="430" width="120" height="60" as="geometry" />
        </mxCell>
        <mxCell id="S05p-A15AvvzfdkErifR-29" value="Account" style="rounded=0;whiteSpace=wrap;html=1;strokeWidth=1;" vertex="1" parent="1">
          <mxGeometry x="305" y="380" width="120" height="60" as="geometry" />
        </mxCell>
        <mxCell id="S05p-A15AvvzfdkErifR-30" value="&lt;u&gt;ID&lt;/u&gt;" style="ellipse;whiteSpace=wrap;html=1;" vertex="1" parent="1">
          <mxGeometry x="-110" y="500" width="120" height="80" as="geometry" />
        </mxCell>
        <mxCell id="S05p-A15AvvzfdkErifR-31" value="" style="endArrow=none;html=1;rounded=0;exitX=0.5;exitY=0;exitDx=0;exitDy=0;entryX=0.428;entryY=1.039;entryDx=0;entryDy=0;entryPerimeter=0;" edge="1" parent="1" source="S05p-A15AvvzfdkErifR-30" target="S05p-A15AvvzfdkErifR-28">
          <mxGeometry width="50" height="50" relative="1" as="geometry">
            <mxPoint x="40" y="620" as="sourcePoint" />
            <mxPoint x="90" y="570" as="targetPoint" />
          </mxGeometry>
        </mxCell>
        <mxCell id="S05p-A15AvvzfdkErifR-32" value="&lt;u&gt;ID&lt;/u&gt;" style="ellipse;whiteSpace=wrap;html=1;" vertex="1" parent="1">
          <mxGeometry x="410" y="480" width="120" height="80" as="geometry" />
        </mxCell>
        <mxCell id="S05p-A15AvvzfdkErifR-33" value="" style="endArrow=none;html=1;rounded=0;entryX=0.5;entryY=1;entryDx=0;entryDy=0;exitX=0.5;exitY=0;exitDx=0;exitDy=0;" edge="1" parent="1" source="S05p-A15AvvzfdkErifR-32" target="S05p-A15AvvzfdkErifR-29">
          <mxGeometry width="50" height="50" relative="1" as="geometry">
            <mxPoint x="-10" y="710" as="sourcePoint" />
            <mxPoint x="40" y="660" as="targetPoint" />
          </mxGeometry>
        </mxCell>
        <mxCell id="S05p-A15AvvzfdkErifR-34" value="Assigned to" style="rhombus;whiteSpace=wrap;html=1;" vertex="1" parent="1">
          <mxGeometry x="-270" y="390" width="160" height="80" as="geometry" />
        </mxCell>
        <mxCell id="S05p-A15AvvzfdkErifR-35" value="" style="endArrow=none;html=1;rounded=0;exitX=0.5;exitY=0;exitDx=0;exitDy=0;entryX=0.5;entryY=1;entryDx=0;entryDy=0;" edge="1" parent="1" source="S05p-A15AvvzfdkErifR-18" target="S05p-A15AvvzfdkErifR-1">
          <mxGeometry width="50" height="50" relative="1" as="geometry">
            <mxPoint x="125" y="350" as="sourcePoint" />
            <mxPoint x="250" y="160" as="targetPoint" />
          </mxGeometry>
        </mxCell>
        <mxCell id="S05p-A15AvvzfdkErifR-3" value="Yearly budget" style="ellipse;whiteSpace=wrap;html=1;" vertex="1" parent="1">
          <mxGeometry x="160" y="190" width="120" height="80" as="geometry" />
        </mxCell>
        <mxCell id="S05p-A15AvvzfdkErifR-36" value="Balance&lt;div&gt;(=&amp;gt; 0)&lt;/div&gt;" style="ellipse;whiteSpace=wrap;html=1;" vertex="1" parent="1">
          <mxGeometry x="201" y="480" width="120" height="80" as="geometry" />
        </mxCell>
        <mxCell id="S05p-A15AvvzfdkErifR-37" value="" style="endArrow=none;html=1;rounded=0;entryX=0.5;entryY=1;entryDx=0;entryDy=0;exitX=0.5;exitY=0;exitDx=0;exitDy=0;" edge="1" parent="1" source="S05p-A15AvvzfdkErifR-36" target="S05p-A15AvvzfdkErifR-29">
          <mxGeometry width="50" height="50" relative="1" as="geometry">
            <mxPoint x="-10" y="470" as="sourcePoint" />
            <mxPoint x="40" y="420" as="targetPoint" />
          </mxGeometry>
        </mxCell>
        <mxCell id="S05p-A15AvvzfdkErifR-40" value="" style="endArrow=none;html=1;rounded=0;entryX=0;entryY=0.5;entryDx=0;entryDy=0;exitX=1;exitY=0.5;exitDx=0;exitDy=0;strokeWidth=3;" edge="1" parent="1" source="S05p-A15AvvzfdkErifR-34" target="S05p-A15AvvzfdkErifR-29">
          <mxGeometry width="50" height="50" relative="1" as="geometry">
            <mxPoint x="-250" y="480" as="sourcePoint" />
            <mxPoint x="-200" y="430" as="targetPoint" />
          </mxGeometry>
        </mxCell>
        <mxCell id="S05p-A15AvvzfdkErifR-42" value="Interest&amp;nbsp; rate" style="ellipse;whiteSpace=wrap;html=1;" vertex="1" parent="1">
          <mxGeometry y="570" width="120" height="80" as="geometry" />
        </mxCell>
        <mxCell id="S05p-A15AvvzfdkErifR-43" value="" style="endArrow=none;html=1;rounded=0;entryX=0.5;entryY=1;entryDx=0;entryDy=0;exitX=0.5;exitY=0;exitDx=0;exitDy=0;" edge="1" parent="1" source="S05p-A15AvvzfdkErifR-42" target="S05p-A15AvvzfdkErifR-28">
          <mxGeometry width="50" height="50" relative="1" as="geometry">
            <mxPoint x="-180" y="480" as="sourcePoint" />
            <mxPoint x="-130" y="430" as="targetPoint" />
          </mxGeometry>
        </mxCell>
        <mxCell id="S05p-A15AvvzfdkErifR-44" value="Assigned to" style="rhombus;whiteSpace=wrap;html=1;" vertex="1" parent="1">
          <mxGeometry x="-280" y="290" width="160" height="80" as="geometry" />
        </mxCell>
        <mxCell id="S05p-A15AvvzfdkErifR-47" value="Balance (=&amp;gt;0)" style="ellipse;whiteSpace=wrap;html=1;" vertex="1" parent="1">
          <mxGeometry x="140" y="570" width="120" height="80" as="geometry" />
        </mxCell>
        <mxCell id="S05p-A15AvvzfdkErifR-48" value="" style="endArrow=none;html=1;rounded=0;entryX=0.5;entryY=1;entryDx=0;entryDy=0;exitX=0.41;exitY=-0.013;exitDx=0;exitDy=0;exitPerimeter=0;" edge="1" parent="1" source="S05p-A15AvvzfdkErifR-47" target="S05p-A15AvvzfdkErifR-28">
          <mxGeometry width="50" height="50" relative="1" as="geometry">
            <mxPoint x="-80" y="590" as="sourcePoint" />
            <mxPoint x="-30" y="540" as="targetPoint" />
          </mxGeometry>
        </mxCell>
      </root>
    </mxGraphModel>
  </diagram>
</mxfile>
